<?xml version="1.0" encoding="UTF-8" standalone="no"?>
<!-- Created with Inkscape (http://www.inkscape.org/) -->

<svg
   version="1.1"
   id="svg1"
   width="1466.6667"
   height="1466.6667"
   viewBox="0 0 1466.6667 1466.6667"
   sodipodi:docname="logo.svg"
   inkscape:version="1.4.3 (0d15f75, 2025-12-25)"
   xmlns:inkscape="http://www.inkscape.org/namespaces/inkscape"
   xmlns:sodipodi="http://sodipodi.sourceforge.net/DTD/sodipodi-0.dtd"
   xmlns="http://www.w3.org/2000/svg"
   xmlns:svg="http://www.w3.org/2000/svg">
  <defs
     id="defs1" />
  <sodipodi:namedview
     id="namedview1"
     pagecolor="#ffffff"
     bordercolor="#000000"
     borderopacity="0.25"
     inkscape:showpageshadow="2"
     inkscape:pageopacity="0.0"
     inkscape:pagecheckerboard="0"
     inkscape:deskcolor="#d1d1d1"
     showgrid="false"
     inkscape:zoom="0.87504459"
     inkscape:cx="268.55774"
     inkscape:cy="991.37805"
     inkscape:window-width="3840"
     inkscape:window-height="2054"
     inkscape:window-x="2549"
     inkscape:window-y="-11"
     inkscape:window-maximized="1"
     inkscape:current-layer="g1" />
  <g
     inkscape:groupmode="layer"
     inkscape:label="Image"
     id="g1">
    <path
       style="display:none;fill:#000000"
       d="m 718.00004,1438.5492 c -7.90461,-3.8006 -30.27491,-15.0023 -34,-17.0252 -2.01667,-1.0951 -8.76667,-4.6375 -15,-7.8719 -32.32971,-16.7759 -68.38648,-37.4069 -96.66667,-55.3111 -27.93893,-17.6881 -49.37546,-32.7371 -72.11611,-50.6272 -1.89718,-1.4926 -6.09718,-4.6637 -9.33333,-7.0471 -6.8691,-5.0589 -13.78957,-10.6415 -23.55308,-19 -3.85474,-3.3 -8.62031,-7.35 -10.59016,-9 -4.31304,-3.6127 -2.73686,-2.1982 -16.074,-14.4251 -14.73363,-13.5072 -47.32903,-46.8409 -53.17396,-54.3784 -1.00432,-1.2952 -5.42604,-6.5402 -9.82604,-11.6556 -4.4,-5.1154 -9.05,-10.615 -10.33334,-12.2213 -1.28333,-1.6063 -3.11342,-3.8353 -4.06686,-4.9534 -9.55686,-11.207 -26.92675,-34.5564 -36.24525,-48.7225 -4.3332,-6.5873 -8.78526,-13.327 -9.89346,-14.977 -2.9353,-4.3704 -16.17893,-26.1667 -19.44344,-32 -1.53899,-2.75 -3.49393,-6.2 -4.3443,-7.6667 -9.71324,-16.7528 -26.28944,-49.5291 -33.04154,-65.3333 -2.81974,-6.60001 -5.85973,-13.62609 -6.75552,-15.61351 -2.0055,-4.44943 -8.05625,-18.8775 -9.24851,-22.05317 -0.48181,-1.28333 -1.82487,-4.58333 -2.98456,-7.33333 -9.12241,-21.63202 -25.86797,-73.65713 -34.54788,-107.33334 -3.05777,-11.86353 -5.22364,-20.21271 -8.81997,-34 -4.21274,-16.15046 -12.7431,-58.90719 -18.29041,-91.67703 -6.2785,-37.08922 -10.24879,-67.61076 -14.95804,-114.98965 -10.36169,-104.24713 -12.20542,-176.4683 -6.72265,-263.33335 2.43498,-38.57802 5.03151,-65.24438 6.46688,-66.41488 0.50463,-0.41152 3.38756,-0.95875 6.40651,-1.21608 3.01895,-0.25734 8.77356,-0.89612 12.78803,-1.41953 4.01447,-0.52341 11.66447,-1.40146 17,-1.95124 38.14715,-3.9307 86.65901,-12.2294 127.36764,-21.7882 32.01371,-7.51714 71.31135,-18.68718 95.43164,-27.12569 26.05745,-9.11623 46.32491,-16.77765 61.7832,-23.35505 5.25149,-2.23447 9.68298,-4.06267 9.84776,-4.06267 0.16478,0 2.8729,-1.2 6.01803,-2.66667 3.14514,-1.46667 5.84192,-2.66667 5.99284,-2.66667 0.15092,0 1.54613,-0.57959 3.10047,-1.28798 30.85978,-14.06441 67.91194,-32.56973 80.82607,-40.36775 2.56667,-1.54984 5.9498,-3.47158 7.51807,-4.27052 3.60564,-1.83685 23.38799,-13.49523 27.81527,-16.39243 1.83333,-1.19973 5.73333,-3.61503 8.66667,-5.36734 7.73769,-4.62233 44.10997,-28.33521 46.59071,-30.374782 1.14065,-0.9378 11.31305,-8.162267 18.74262,-13.311057 3.66667,-2.541049 9.96667,-7.010729 14,-9.932622 8.81285,-6.384349 9.65729,-6.515455 15.33334,-2.38063 2.2,1.602631 6.09477,4.362403 8.65504,6.132825 2.56027,1.770423 9.01027,6.346531 14.33333,10.169129 8.42687,6.051501 40.06076,27.359827 50.6783,34.136477 13.39211,8.54752 25.03973,15.6967 30,18.41366 2.01667,1.10461 10.86667,6.14151 19.66667,11.1931 33.10781,19.00534 84.27764,43.36673 121.33334,57.76545 48.87511,18.99138 78.50461,28.4105 129.85901,41.28175 50.689,12.70447 109.124,22.64317 174.6379,29.70263 2.1067,0.227 4.0927,0.74514 4.4135,1.15141 0.7968,1.00904 2.5931,16.08642 3.7417,31.40536 0.5223,6.96666 1.2673,16.58559 1.6554,21.3754 2.018,24.90259 2.8263,47.83715 3.1236,88.6246 0.1737,23.83334 0.073,46.48334 -0.2243,50.33334 l -0.5401,7 h -33.8967 c -18.6431,0 -34.1331,-0.15 -34.4222,-0.33333 -0.289,-0.18334 -0.7025,-22.98334 -0.9188,-50.66667 -0.2986,-38.22341 -0.6829,-54.53508 -1.5973,-67.79734 -0.6623,-9.6052 -1.4103,-17.67015 -1.6623,-17.92211 -0.5988,-0.59882 -8.91,-1.94595 -22.1702,-3.59344 -5.867,-0.72895 -12.317,-1.64158 -14.3333,-2.02806 -2.0162,-0.38648 -9.8159,-1.74885 -17.3326,-3.02749 -17.9796,-3.05849 -43.0057,-7.91155 -53,-10.27779 -4.4,-1.04174 -14,-3.295 -21.3333,-5.00724 -11.8087,-2.75718 -19.6664,-4.79512 -37.6667,-9.76902 -47.7939,-13.2066 -109.75657,-35.97377 -152.99998,-56.21731 -2.93334,-1.37318 -8.63334,-4.04064 -12.66667,-5.92769 -16.74629,-7.835 -51.19864,-25.70777 -67.1796,-34.85063 -2.48212,-1.42004 -5.33212,-3.03249 -6.33334,-3.58321 -5.14805,-2.83169 -19.00871,-11.15137 -26.15373,-15.69845 -1.28334,-0.81671 -5.33334,-3.36404 -9,-5.66073 -8.17087,-5.11799 -37.36981,-24.50244 -44.66667,-29.65308 -2.93334,-2.07056 -6.44664,-4.52168 -7.80735,-5.44693 l -2.474,-1.68228 -8.85933,6.2904 c -32.34655,22.96707 -66.18093,44.20935 -96.85933,60.81131 -2.56667,1.38898 -6.91667,3.75529 -9.66667,5.25845 -19.08059,10.42958 -51.57776,26.48193 -69.33333,34.24801 -24.95999,10.9172 -46.1491,19.79228 -54.37684,22.77579 -5.10941,1.85275 -12.13983,4.45437 -15.62317,5.78136 -9.00534,3.43064 -33.84473,12.00154 -41.33333,14.26219 -3.48334,1.05154 -11.73334,3.56876 -18.33334,5.59382 -22.47288,6.8953 -39.52481,11.45873 -64.12757,17.16181 -22.77723,5.27991 -26.46948,5.9803 -77.20577,14.64547 -4.4,0.75146 -14.88149,2.25327 -23.29219,3.33734 -8.41071,1.08406 -15.4898,2.29076 -15.73132,2.68155 -0.24152,0.39079 -0.63039,4.9671 -0.86416,10.16958 -0.23377,5.20247 -0.71781,14.25905 -1.07565,20.12571 -1.1248,18.44062 -2.21682,64.87426 -1.78736,76.00001 0.22645,5.86667 0.57489,15.91667 0.7743,22.33333 1.37079,44.10949 4.47005,94.42492 7.61743,123.66668 0.71038,6.6 1.76991,16.65 2.35451,22.33333 6.23133,60.57966 15.00397,116.69197 25.3793,162.33334 3.33009,14.64919 13.67495,55.33018 17.88523,70.33334 3.70045,13.18644 12.57181,41.11094 16.73173,52.66667 1.25396,3.48333 3.66102,10.23333 5.34903,15 14.45003,40.8045 38.4164,92.17795 60.42926,129.53385 1.95978,3.3258 4.84175,8.2412 6.40438,10.9232 3.57071,6.1285 13.56991,21.558 18.38579,28.3706 2.01098,2.8448 4.65759,6.6047 5.88136,8.3553 2.76179,3.9508 8.38225,11.598 10.71533,14.5794 0.96308,1.2307 3.93521,5.0877 6.60473,8.571 23.6435,30.8513 63.88046,73.4626 92.23831,97.6812 2.56667,2.192 4.81667,4.1373 5,4.3229 0.18334,0.1857 2.28184,1.9857 4.66333,4 2.3815,2.0144 4.9315,4.2101 5.66667,4.8793 1.52255,1.3859 7.0039,5.8202 16.67001,13.4855 3.66666,2.9077 7.11666,5.6587 7.66666,6.1135 18.05909,14.9307 44.17941,33.1353 76.00001,52.9683 22.03749,13.7353 42.55339,25.6279 75.66667,43.862 9.53333,5.2496 18.98333,10.4609 21,11.5805 2.01667,1.1197 5.13505,2.847 6.92973,3.8384 l 3.26307,1.8027 4.07027,-2.4786 c 2.23864,-1.3633 7.67026,-4.3869 12.07026,-6.7191 4.4,-2.3322 12.80001,-6.9386 18.66667,-10.2364 5.86667,-3.2978 13.34229,-7.4635 16.6125,-9.257 27.03794,-14.8291 67.03837,-39.5296 91.1756,-56.3016 25.45576,-17.6883 31.06119,-21.9555 65.75612,-50.0581 13.61655,-11.0293 48.92279,-44.884 64.4558,-61.8059 4.03334,-4.3939 9.01324,-9.7939 11.06644,-12 5.1781,-5.5634 18.0132,-20.8054 23.5877,-28.0109 2.553,-3.3 4.8233,-6.15 5.0451,-6.3334 0.2218,-0.1833 2.5095,-3.1833 5.0838,-6.6666 2.5743,-3.4834 7.0139,-9.4834 9.8658,-13.3334 4.5973,-6.2061 14.1066,-20.3381 25.1214,-37.3333 11.7556,-18.1382 27.3509,-46.9964 38.9096,-72.00001 2.4578,-5.31667 5.5155,-11.91667 6.7949,-14.66667 2.6636,-5.72521 10.0569,-23.37725 11.8671,-28.33333 1.7045,-4.66678 2.4151,-5.3006 7.8519,-7.00354 9.5304,-2.98516 19.7147,-7.26858 28.5105,-11.99125 8.1368,-4.36888 21.8051,-12.40679 22.6291,-13.30751 0.1833,-0.20041 2.8833,-2.04323 6,-4.09516 5.5425,-3.64902 19.3109,-14.82968 25.7353,-20.89835 3.2561,-3.0758 4.4305,-3.457 4.7991,-1.55767 0.4641,2.39198 -16.6599,52.16815 -26.6686,77.52014 -11.9203,30.19438 -27.46,63.40315 -43.5183,93.00005 -14.6794,27.0553 -38.0161,63.9722 -53.7461,85.0221 -11.8698,15.8843 -24.8414,32.2405 -31.1766,39.3112 -0.9855,1.1 -3.4081,3.95 -5.3834,6.3333 -17.5499,21.175 -50.576,54.9642 -72.00272,73.6667 -3.78069,3.3 -8.59198,7.5722 -10.69177,9.4937 -2.09978,1.9216 -4.68684,4.1558 -5.74902,4.9651 -1.06218,0.8093 -3.88124,3.149 -6.26457,5.1995 -26.00394,22.372 -63.40062,49.4089 -103.55371,74.867 -21.45539,13.6033 -28.51881,17.7849 -58.77963,34.7986 -33.99527,19.1134 -85.13306,45.0411 -88.73924,44.9924 -0.69342,-0.01 -3.21077,-0.9546 -5.5941,-2.1005 z m 18.40007,-5.1242 c 25.47519,-11.946 70.32628,-35.7442 96.2666,-51.0794 2.01667,-1.1922 5.01667,-2.9213 6.66667,-3.8425 3.23459,-1.8058 22.83669,-13.6913 26.66667,-16.1691 34.2254,-22.1417 52.01981,-34.2808 68.16971,-46.5043 23.81822,-18.0274 22.32363,-16.8598 33.4881,-26.163 2.64015,-2.2 6.2722,-5.1982 8.07123,-6.6628 1.79903,-1.4645 4.92096,-4.1814 6.93763,-6.0376 2.01667,-1.8561 5.45004,-4.8578 7.62972,-6.6705 2.17968,-1.8126 4.72968,-4.056 5.66667,-4.9852 0.93699,-0.9293 2.75361,-2.5419 4.03699,-3.5836 6.3832,-5.1814 29.57,-27.9979 45.717,-44.9868 8.0209,-8.4393 8.013,-8.4306 12.944,-14.0988 2.3802,-2.7361 4.6912,-5.3571 5.1355,-5.8245 0.4444,-0.4675 1.9469,-2.2675 3.339,-4 1.3921,-1.7326 2.683,-3.3002 2.8686,-3.4835 0.4323,-0.427 7.2426,-8.4549 8.9959,-10.6042 0.7333,-0.899 2.2545,-2.7058 3.3805,-4.0152 8.1962,-9.5313 27.0726,-34.8837 37.7631,-50.7186 9.4346,-13.9749 14.9411,-22.7227 23.7072,-37.662 2.3667,-4.0333 4.9884,-8.3833 5.8261,-9.6667 2.5464,-3.9009 14.7693,-26.8444 22.0199,-41.3333 9.2801,-18.5443 14.7475,-30.1934 21.1203,-45.00001 8.7457,-20.31994 18.2848,-45.78416 27.8868,-74.44264 4.0129,-11.97678 7.2961,-21.97221 7.2961,-22.21206 0,-0.69054 -3.0278,1.6795 -12.3334,9.65419 -18.3394,15.71653 -45.3226,31.66413 -66,39.00732 -5.8666,2.08344 -11.0018,3.88453 -11.4115,4.00242 -0.4097,0.11789 -2.6175,4.94428 -4.9064,10.72532 -3.7113,9.37378 -7.3636,17.62834 -18.4058,41.59878 -1.7736,3.84998 -5.9112,12.24998 -9.1947,18.66668 -3.2835,6.4167 -6.4238,12.5667 -6.9784,13.6667 -1.5822,3.1379 -10.0975,17.8662 -15.4175,26.6666 -5.1397,8.5022 -9.078,14.6369 -17.3332,27 -7.91,11.8463 -9.3601,13.9399 -13.6222,19.6667 -2.183,2.9333 -5.622,7.5833 -7.642,10.3333 -5.3648,7.3035 -11.5361,15.1084 -19.0883,24.1414 -3.6666,4.3857 -7.6671,9.223 -8.8899,10.7496 -1.2229,1.5266 -3.9229,4.5866 -6,6.8 -2.0772,2.2134 -6.1735,6.7134 -9.1029,10 -11.42124,12.814 -31.50283,32.7491 -47.67385,47.3261 -2.38333,2.1485 -4.78333,4.3779 -5.33333,4.9544 -2.42305,2.5399 -13.59132,12.2601 -20,17.4069 -3.85,3.0919 -7.34103,5.9412 -7.75784,6.3318 -0.73062,0.6848 -3.28096,2.7023 -18.90581,14.9565 -17.28474,13.556 -48.75801,35.2276 -71.20775,49.0316 -4.14593,2.5493 -10.29593,6.3331 -13.66667,8.4085 -14.73509,9.0727 -46.27014,27.0453 -76.46194,43.5778 -7.88334,4.3168 -14.82187,8.1531 -15.41897,8.5252 -1.23773,0.7712 -1.4667,0.6653 -15.58103,-7.2038 -5.13334,-2.862 -16.68334,-9.2586 -25.66667,-14.2148 -45.44409,-25.0718 -79.39939,-45.8614 -111.66667,-68.3695 -4.03334,-2.8135 -8.53334,-5.9035 -10.00001,-6.8667 -1.46666,-0.9632 -4.78443,-3.4321 -7.37282,-5.4864 -2.58839,-2.0544 -10.19732,-8.0852 -16.90875,-13.4019 -10.95604,-8.6792 -15.92203,-12.7417 -27.70776,-22.6667 -5.37353,-4.5251 -17.07806,-14.833 -19.35528,-17.0457 -1.1062,-1.0748 -5.27215,-4.9543 -9.25767,-8.6209 -7.18517,-6.6104 -26.46324,-26.0014 -34.13334,-34.3334 -5.29127,-5.7478 -18.87877,-21.1321 -20.95212,-23.7228 -0.90508,-1.1309 -4.6456,-5.6729 -8.31226,-10.0933 -20.02296,-24.139 -44.68757,-59.1178 -55.36491,-78.5172 -1.41268,-2.5667 -3.51928,-6.1667 -4.68135,-8 -3.12992,-4.9379 -9.80721,-17.223 -16.1247,-29.6667 -3.0715,-6.05 -6.27751,-12.2 -7.12445,-13.6666 -1.54665,-2.6784 -10.81609,-22.88161 -18.19947,-39.66671 -13.01114,-29.57903 -30.72496,-80.21146 -40.81597,-116.66668 -5.66698,-20.47275 -16.27554,-63.77871 -19.76073,-80.66667 -8.42011,-40.80078 -15.44208,-86.04311 -20.28051,-130.66667 -5.36468,-49.47708 -6.00651,-56.37706 -7.96862,-85.66667 -0.39301,-5.86667 -1.00079,-14.71667 -1.35062,-19.66667 -0.60243,-8.52406 -1.08208,-19.58492 -2.68197,-61.84713 -1.12454,-29.70519 -0.633,-58.739 1.75202,-103.48621 0.75375,-14.14181 1.38395,-21.28705 1.9297,-21.87895 0.47204,-0.51196 4.81754,-1.40142 10.40766,-2.1303 5.27848,-0.68824 12.14724,-1.58198 15.26391,-1.98608 3.11666,-0.40411 10.01666,-1.47297 15.33333,-2.37526 28.28396,-4.80003 45.06446,-7.72887 51.33334,-8.95963 6.85563,-1.34595 8.8139,-1.78027 21,-4.65752 3.3,-0.77917 7.8,-1.84097 10,-2.35957 36.37734,-8.57512 85.80167,-23.48508 116.66667,-35.19512 4.4,-1.66934 12.2,-4.58263 17.33334,-6.47398 30.26559,-11.15119 86.72311,-37.15303 119.23797,-54.91574 5.55245,-3.03328 13.09537,-7.11612 16.76203,-9.07298 7.40709,-3.95309 22.45993,-12.64102 32.66667,-18.85396 13.27339,-8.07963 47.03207,-30.38138 59.63226,-39.39442 4.93108,-3.52724 9.4509,-6.41317 10.04405,-6.41317 0.59315,0 4.50863,2.37973 8.70107,5.28829 50.49363,35.03059 89.8385,58.438 141.45373,84.15496 7.97377,3.97288 14.62099,7.22342 14.7716,7.22342 0.15061,0 4.36806,1.95 9.37211,4.33333 5.00404,2.38334 9.19862,4.33334 9.32128,4.33334 0.12266,0 5.92304,2.52064 12.88973,5.60143 38.95818,17.22796 80.20787,31.99729 130.48087,46.71833 43.1882,12.64645 101.2162,24.67804 154.3333,31.99965 6.7834,0.93501 12.9952,1.84807 13.8042,2.02901 1.8821,0.42101 1.9355,0.77344 3.2271,21.31825 1.5491,24.64073 2.2309,57.13552 1.8496,88.15433 l -0.3379,27.48765 33.1258,0.17902 c 21.5583,0.1165 33.2704,-0.0538 33.5401,-0.48766 1.026,-1.65023 0.9063,-72.46165 -0.1643,-97.27969 -1.5043,-34.8697 -4.1474,-72.51582 -6.2744,-89.36587 l -1.1755,-9.31221 -7.2973,-0.85774 c -32.6798,-3.84122 -55.8823,-6.85203 -68.6307,-8.90565 -32.5309,-5.24036 -49.3632,-8.38281 -79.7578,-14.89005 -34.1997,-7.32192 -97.6141,-25.66993 -125.3241,-36.26067 -26.36295,-10.07589 -46.65967,-18.15935 -55.58478,-22.13742 -1.83333,-0.81715 -6.94605,-3.07359 -11.36159,-5.01431 -32.71183,-14.37755 -64.43916,-30.63168 -95.14672,-48.74431 -3.94623,-2.32765 -7.32649,-4.2321 -7.5117,-4.2321 -0.1852,0 -2.80646,-1.54001 -5.82503,-3.42225 -3.01856,-1.88224 -6.8383,-4.18145 -8.4883,-5.10935 -1.65,-0.9279 -4.40436,-2.61289 -6.12079,-3.74441 -1.71644,-1.13153 -6.21644,-4.05383 -10,-6.49401 -24.75429,-15.96506 -38.01048,-25.033957 -67.59244,-46.2417 -8.73785,-6.26429 -9.43219,-6.621256 -11.25966,-5.788605 -0.809,0.368602 -4.89605,3.153627 -9.08234,6.188945 -4.1863,3.035318 -8.96144,6.425694 -10.61144,7.534169 -1.65,1.108474 -6.15,4.29063 -10,7.071457 -10.46587,7.559414 -37.41612,25.589964 -49.15877,32.888724 -2.84602,1.76897 -8.77457,5.48262 -13.17457,8.25255 -4.4,2.76994 -10.85,6.69832 -14.33334,8.72974 -11.16845,6.51324 -23.49274,13.46808 -23.86604,13.46808 -0.19927,0 -0.83593,0.41446 -1.4148,0.92103 -2.947,2.57893 -56.42203,29.49451 -72.71916,36.60173 -3.72176,1.62307 -6.67609,2.93461 -14.33334,6.36312 -17.0117,7.61695 -45.79841,19.11732 -62,24.76917 -2.93333,1.02328 -10.13333,3.55498 -16,5.626 -16.17352,5.70947 -56.9712,17.83526 -77.33334,22.98482 -29.89179,7.55961 -57.31944,13.24385 -87,18.03033 -9.35,1.50784 -18.5,3.03503 -20.33334,3.39376 -4.96627,0.97175 -31.37376,4.27074 -53.66667,6.70438 -10.81666,1.18082 -20.28842,2.37249 -21.04834,2.64815 -1.22936,0.44595 -1.47246,1.40828 -2.20512,8.72936 -1.97902,19.775 -3.54835,39.448 -5.22988,65.56149 -1.72375,26.769 -1.80192,30.41804 -1.77802,83 0.0264,58.19494 0.42128,69.02332 4.2662,117.00001 7.2918,90.98665 15.06938,149.43918 29.31712,220.33335 5.04681,25.11197 8.06788,37.88138 17.64822,74.59508 9.96532,38.18903 23.9143,81.08153 36.01296,110.73826 5.15508,12.63635 9.17019,22.20862 11.3252,27 0.82458,1.83334 3.6964,8.43338 6.38183,14.66668 8.30622,19.2801 21.52364,45.1091 35.64764,69.6611 11.03253,19.1781 14.47039,24.752 30.1954,48.9564 4.98866,7.6787 17.52992,25.0997 23.10598,32.0964 1.48179,1.8593 3.59416,4.5484 4.69416,5.9757 7.31688,9.4943 26.23069,31.983 38.91168,46.2665 6.48674,7.3064 15.61768,16.826 28.45919,29.6704 16.88151,16.8854 23.14149,22.6099 45.36696,41.4865 14.01129,11.9001 16.08812,13.6091 19.30657,15.887 1.55418,1.1 5.92999,4.3828 9.72403,7.2951 22.31226,17.127 38.17153,28.7717 45.90369,33.7049 1.43676,0.9167 7.34831,4.8378 13.13676,8.7136 5.78845,3.8758 13.59145,8.9758 17.33999,11.3334 3.74855,2.3575 9.29855,5.847 12.33334,7.7544 7.07708,4.4481 12.00443,7.3406 31.18447,18.3062 8.61666,4.9263 16.41667,9.4381 17.33333,10.0262 7.56155,4.8511 86.39286,45.5591 88.73341,45.8214 0.22004,0.025 6.07004,-2.614 13,-5.8636 z m -24.56136,-215.256 c -0.15673,-2.1096 -0.32692,-11.8314 -0.3782,-21.6041 -0.0727,-13.858 0.0939,-17.8403 0.75709,-18.0948 0.46769,-0.1795 42.41871,-0.3643 93.22447,-0.4106 78.0724,-0.071 92.49306,0.059 93.14232,0.8414 0.55236,0.6656 0.71866,6.8032 0.59191,21.8457 l -0.17629,20.9201 -93.43817,0.169 -93.43817,0.169 z m 185.9362,-17.8323 -0.10823,-20.3301 h -92.33334 -92.33334 l 0.18552,20.3337 0.18553,20.3337 h 92.25605 92.25605 z m -322.77492,20.5113 c -1.74261,-0.4323 -7.40923,-4.5883 -8.62738,-6.3275 -0.52395,-0.748 -3.60911,-4.0961 -6.85591,-7.4402 -3.24681,-3.3441 -6.26631,-6.9193 -6.71,-7.9449 -1.36397,-3.1528 -1.00973,-9.122 0.70993,-11.9626 0.83039,-1.3717 20.29568,-21.4717 43.25619,-44.6667 22.96051,-23.195 42.5636,-43.1565 43.56242,-44.3588 l 1.81605,-2.1862 -32.35326,-32.4805 c -57.53796,-57.7643 -56.31281,-56.4921 -57.08616,-59.2771 -2.07732,-7.48068 -0.39372,-10.80503 11.33986,-22.39099 11.05067,-10.91164 12.06612,-11.45236 18.2816,-9.73478 2.93227,0.8103 2.75931,0.63999 76.87312,75.69277 21.01355,21.2798 38.98333,39.7824 39.93283,41.1169 1.37003,1.9255 1.78694,3.4261 2.01981,7.2695 0.27564,4.5495 0.16878,5.0251 -1.76216,7.8432 -2.62845,3.836 -11.61082,13.0775 -67.3359,69.2782 -33.79399,34.0824 -46.27242,46.2617 -48.18016,47.025 -2.49623,0.9988 -6.14764,1.2227 -8.88088,0.5447 z m 7.20446,-1.5601 c 2.65899,-0.7384 6.76816,-4.7837 76.46221,-75.2748 36.63178,-37.0507 37.54418,-37.9986 39.64754,-41.188 1.7152,-2.6009 1.83758,-3.1902 1.44418,-6.954 -0.23641,-2.2618 -0.90277,-4.8342 -1.48082,-5.7164 -1.0853,-1.6564 -22.96575,-24.0334 -54.94423,-56.1912 -10.08333,-10.1399 -27.50899,-27.7549 -38.72368,-39.14457 -17.89115,-18.17024 -20.74162,-20.80302 -23.2562,-21.48012 -1.57621,-0.42443 -3.65056,-0.57825 -4.60965,-0.34181 -1.93215,0.47631 -17.16834,14.99806 -20.5422,19.57896 -2.80462,3.80799 -3.40573,7.66684 -1.76439,11.32644 0.87518,1.9514 13.81202,15.4307 44.89612,46.7787 24.01666,24.2206 43.76316,44.6306 43.8811,45.3555 0.14882,0.9148 -1.687,3.2935 -6,7.7742 -8.81053,9.153 -58.9257,59.8816 -70.9707,71.8394 -5.54927,5.5091 -10.72315,11.0665 -11.4975,12.3499 -2.14589,3.5563 -1.92644,8.3294 0.55521,12.076 2.81269,4.2464 18.12289,19.0705 20.07461,19.4372 2.87008,0.5394 4.23696,0.4942 6.8284,-0.2254 z M 606.6667,929.57627 c -1.28333,-0.14981 -8.33333,-0.88301 -15.66667,-1.62934 -7.33333,-0.74634 -14.53333,-1.61929 -16,-1.9399 -1.46666,-0.32061 -4.61667,-0.93878 -7,-1.37371 -13.83546,-2.52478 -28.00013,-6.56734 -43.66667,-12.46236 C 471.25244,892.19761 423.9474,853.97556 390.86956,804.33338 367.2187,768.83891 354.7074,739.20912 344.70313,695.00004 c -1.49355,-6.6 -4.37026,-18.3 -6.3927,-26 -3.77496,-14.37232 -17.36999,-68.64913 -25.21458,-100.66668 -10.36099,-42.28817 -12.4577,-51.29739 -12.13444,-52.13978 0.28433,-0.74096 28.14768,-0.85448 165.52359,-0.67436 164.58963,0.21579 165.22113,0.22171 176.1817,1.65117 31.31408,4.08394 53.83259,9.78822 84.33334,21.36291 14.03876,5.32755 32.44619,14.51871 43.66667,21.80355 12.18935,7.91388 18.15662,11.92052 23.00593,15.44703 2.9366,2.13555 5.96802,4.33282 6.73648,4.88282 2.86749,2.05228 11.43294,8.73548 16.59093,12.94507 2.93333,2.39398 5.80266,4.3607 6.37629,4.37048 0.57363,0.01 3.12363,-1.72657 5.66667,-3.85855 6.86871,-5.75845 22.32936,-17.286 30.29037,-22.58467 29.84163,-19.86193 53.17581,-31.04705 85.29246,-40.8845 17.56323,-5.37969 27.83747,-7.8357 44.37421,-10.60746 27.57785,-4.62239 14.69255,-4.31224 188.61725,-4.54 87.4657,-0.11454 157.5389,0.049 157.8584,0.36854 0.9064,0.90647 -7.3,38.88242 -26.1745,121.12443 -11.8524,51.64486 -13.1071,57.21376 -15.32,68 -4.3355,21.13204 -12.7679,50.35577 -17.3129,60 -0.3456,0.73334 -1.8584,4.18334 -3.3617,7.66667 -8.6017,19.93115 -26.6115,49.59593 -39.0573,64.33334 -8.0932,9.58328 -17.0486,19.59443 -19.3344,21.61387 -1.4198,1.25429 -4.2405,3.80429 -6.2681,5.66666 -6.7366,6.18763 -12.8735,11.16582 -20.2868,16.45644 -27.6108,19.70487 -59.5216,34.28983 -90.0266,41.14705 -28.1498,6.3278 -41.0605,7.7616 -70,7.77388 -28.8883,0.0123 -43.49346,-1.64655 -67.66668,-7.68536 -12.52352,-3.12855 -12.59684,-3.15089 -21.33333,-6.49854 -10.48135,-4.01625 -16.1906,-6.75804 -26.42125,-12.68847 -11.03928,-6.39917 -21.44664,-14.58148 -33.24542,-26.13769 -13.87743,-13.59211 -15.69686,-15.20505 -21.54057,-19.09581 -7.06177,-4.70175 -14.49066,-7.91539 -22.2965,-9.64516 -5.07718,-1.12511 -7.63106,-1.30422 -14.49627,-1.01668 -10.32628,0.43251 -16.11103,1.69436 -23.07418,5.03329 -9.45159,4.53218 -14.42632,8.37245 -27.42492,21.17087 -13.64261,13.4325 -23.01052,21.22407 -33.22077,27.63071 -7.87099,4.93882 -28.57502,15.11157 -35.61347,17.49837 -13.48189,4.57184 -31.49599,8.45591 -47.33334,10.20569 -9.05409,1.00033 -42.4253,1.79783 -48,1.1471 z m 47,-2.56234 c 24.91276,-2.65248 44.79117,-8.02873 64.00001,-17.30922 19.93537,-9.63151 31.26327,-17.65253 48,-33.98766 18.0286,-17.59601 20.83699,-19.80778 31.87751,-25.1054 13.43439,-6.44626 32.85888,-7.13003 47.37143,-1.66752 11.4646,4.31527 19.54126,10.23759 35.07953,25.72259 8.80166,8.77147 14.27586,13.57295 21.43945,18.80477 24.59986,17.96612 57.44909,29.4485 96.23209,33.63771 14.43688,1.55942 45.27318,1.53333 61.66668,-0.0522 13.6075,-1.31606 40.6502,-6.50071 52.5716,-10.07908 11.0021,-3.30243 32.1231,-11.96225 45.2276,-18.54369 10.3884,-5.2174 28.9103,-17.45997 40.8675,-27.01255 8.0494,-6.43073 25.4409,-23.78843 32.3532,-32.29044 6.4474,-7.93016 16.2938,-21.41583 20.3406,-27.8584 1.6351,-2.60304 4.0905,-6.50306 5.4565,-8.66671 3.8791,-6.14419 12.7646,-23.45489 16.5654,-32.27277 8.5069,-19.73624 14.9402,-41.66866 21.2168,-72.33334 1.4635,-7.15 3.5728,-16.9 4.6873,-21.66667 1.1145,-4.76667 3.54,-15.11667 5.3901,-23 4.0024,-17.05423 8.294,-35.86347 11.9408,-52.33334 1.4614,-6.6 3.7328,-16.65 5.0476,-22.33333 3.3241,-14.36927 13.0017,-59.79125 13.0017,-61.024 0,-0.90468 -16.7736,-0.99016 -156.1667,-0.79593 -172.6075,0.24053 -159.8786,-0.0679 -187.83335,4.55103 -14.70516,2.42971 -24.73674,4.72039 -38.66666,8.82944 -28.87842,8.51855 -47.92214,16.61426 -72.66667,30.89147 -13.53978,7.81223 -36.34658,23.87519 -48.00001,33.80666 -6.56571,5.59553 -6.68649,5.6323 -10.46333,3.18524 -1.76183,-1.14151 -4.10333,-2.9221 -5.20333,-3.95685 -1.95545,-1.83946 -15.70767,-12.31821 -25.66667,-19.55717 -14.19929,-10.32114 -37.53021,-23.87346 -51.33334,-29.81819 -32.10449,-13.82678 -60.89523,-21.67015 -96.33334,-26.24382 l -11.33333,-1.46268 -164.15215,-0.21928 c -132.80526,-0.1774 -164.10481,-0.057 -163.90421,0.63074 0.13636,0.4675 0.71924,2.8 1.29527,5.18334 0.57603,2.38333 3.90384,16.03333 7.39514,30.33333 3.49129,14.3 8.16692,33.5 10.39027,42.66667 4.99701,20.60216 13.01463,52.35713 16.91642,67 1.6121,6.05 4.47549,17.6 6.36309,25.66667 4.51493,19.29461 7.53702,30.64619 11.15241,41.89072 11.12175,34.59067 32.93871,72.7204 58.80607,102.77596 7.09944,8.24891 25.02162,26.04444 30.40434,30.18948 2.2,1.69414 5.65001,4.47791 7.66667,6.18617 17.99503,15.24302 48.91272,32.67563 75.00001,42.28795 25.7686,9.4949 46.20193,13.66049 81.33333,16.58083 6.87023,0.5711 35.0321,-0.20475 44.66667,-1.23055 z m -39,-160.07513 c -0.91667,-0.16665 -5.11667,-0.76616 -9.33333,-1.33224 -24.55871,-3.29697 -49.85143,-14.12066 -68.99187,-29.52418 -8.39807,-6.75845 -20.40035,-19.37275 -26.09122,-27.42163 -5.71955,-8.08946 -11.77612,-17.78711 -14.64685,-23.45223 -2.21289,-4.36692 -7.6034,-18.13847 -7.6034,-19.42498 0,-2.9784 25.94063,-13.10883 47,-18.35462 30.7206,-7.65235 64.19328,-8.81354 89.66667,-3.11061 22.15356,4.95969 46.30644,17.32316 63.10168,32.30071 10.33114,9.21304 16.88385,16.71469 25.85404,29.59814 3.77958,5.42843 13.62865,24.39301 15.74951,30.32599 1.48621,4.15757 1.48893,4.22571 0.21935,5.49528 -2.56909,2.5691 -30.91302,13.69273 -44.87765,17.61234 -18.0777,5.07406 -32.05149,7.03368 -52.38026,7.34557 -8.8,0.13501 -16.75,0.10912 -17.66667,-0.0575 z m 41.33334,-2.88013 c 21.63504,-2.99652 41.13981,-8.88009 65.83333,-19.85849 4.79372,-2.13122 6.83334,-3.37612 6.83334,-4.1708 0,-2.85101 -9.32751,-21.99677 -14.95488,-30.69657 -10.70434,-16.54871 -25.65748,-31.9882 -40.71179,-42.03595 -27.42685,-18.30559 -55.58579,-26.20939 -89.33334,-25.07456 -26.87374,0.90369 -55.35851,6.92884 -80.52514,17.03283 -5.98682,2.40361 -12.89283,5.80316 -13.37557,6.58425 -0.48585,0.78611 7.22266,19.26409 9.66147,23.15942 1.14825,1.83401 2.60253,4.23457 3.23173,5.33457 6.51312,11.38654 17.17058,24.7192 26.6564,33.3476 2.00688,1.82549 4.95962,4.51907 6.56163,5.98574 5.30717,4.85879 16.99383,12.36046 26.45614,16.98219 15.09465,7.37277 31.15178,12.15092 47.00001,13.98587 3.48333,0.40331 7.23333,0.85268 8.33333,0.9986 5.06755,0.67224 29.29644,-0.32306 38.33334,-1.5747 z m 347.33336,2.86926 c -1.2833,-0.15656 -6.23334,-0.75534 -11.00001,-1.33063 -10.57834,-1.27669 -25.30729,-4.26179 -33.73314,-6.83666 -8.69685,-2.65767 -31.89876,-11.58686 -37.93353,-14.59861 -2.80223,-1.39849 -5.09054,-2.98629 -5.20598,-3.6123 -0.56244,-3.04995 12.90124,-29.60955 20.04866,-39.54969 20.69044,-28.77485 53.66395,-50.16963 87.837,-56.99286 14.4738,-2.88993 22.8074,-3.56492 38.8841,-3.14947 30.3964,0.78552 56.3189,6.47977 85.4195,18.76363 9.4479,3.98814 10.5396,4.70838 9.9777,6.58245 -1.6764,5.59127 -6.9073,17.64285 -10.5805,24.37655 -14.1219,25.88814 -33.7306,46.53852 -55.7426,58.70375 -21.2048,11.71919 -43.3403,17.23606 -70.9712,17.68839 -8.0667,0.13205 -15.7167,0.112 -17,-0.0446 z m 38.6667,-2.89424 c 18.2462,-3.06172 28.8891,-6.4073 43.6666,-13.72661 12.608,-6.24472 21.9148,-13.08252 33.0021,-24.24698 11.8845,-11.96719 21.0717,-24.62333 28.6947,-39.52967 3.8672,-7.56221 8.6366,-19.07531 8.6366,-20.84864 0,-2.23201 -34.3926,-14.61217 -50.6667,-18.23827 -16.4105,-3.65651 -30.2084,-5.08164 -49,-5.06103 -17.4315,0.0191 -24.1674,0.77904 -38.4109,4.33337 -22.8302,5.69708 -46.48631,18.94277 -64.13628,35.91163 -11.05055,10.62412 -17.77828,19.41151 -25.66363,33.52046 -4.27118,7.64224 -11.79614,23.74301 -11.31472,24.20951 1.91525,1.85588 34.46344,14.75736 44.19218,17.51693 12.12942,3.44053 26.39864,5.91178 44.66665,7.73571 6.4166,0.64065 28.9463,-0.33686 36.3334,-1.57641 z"
       id="path1" />
    <path
       style="display:inline;fill:#4f46e5;fill-opacity:1;stroke:#4f46e5;stroke-width:0.808081;stroke-opacity:1"
       d="m 694.54549,1424.3656 c -45.44523,-23.0929 -77.9151,-41.0627 -109.49495,-60.5981 -52.5569,-32.5117 -108.02243,-74.4042 -147.57993,-111.4656 -36.38623,-34.0902 -81.66412,-86.7944 -107.13674,-124.7088 C 297.3935,1078.5633 272.78411,1032.3025 248.74474,974.22179 225.70128,918.54712 204.57992,846.52896 190.30256,774.94954 176.40506,705.27456 168.58972,645.28 161.21502,551.65866 c -3.26736,-41.47895 -3.82405,-61.59468 -3.41823,-123.51686 0.39202,-59.81737 0.94406,-72.09015 5.43535,-120.83642 0.88899,-9.64871 1.61635,-18.03376 1.61635,-18.63343 0,-3.41552 1.29258,-3.73809 26.66667,-6.6548 34.70709,-3.98951 40.95611,-4.85065 68.28283,-9.40956 46.09308,-7.68968 82.69203,-15.99213 124.04042,-28.1385 60.8376,-17.87146 109.60575,-37.087 168.88889,-66.5453 50.59212,-25.13965 96.37666,-53.0832 155.86727,-95.130009 l 14.85716,-10.500753 2.62425,1.548347 c 1.44334,0.851591 10.39398,7.087615 19.89032,13.857832 76.51384,54.548973 144.20434,92.072053 222.96111,123.594713 38.30779,15.33282 56.11849,21.43905 95.71909,32.81658 60.0124,17.24195 112.3276,27.62292 184.9553,36.70092 17.2809,2.16 31.6952,4.22471 32.0317,4.58824 1.0883,1.17539 3.8539,31.46763 6.0731,66.51955 1.6436,25.96113 2.8471,85.0783 2.225,109.29294 l -0.4931,19.19192 h -33.0231 -33.0231 l 0.5161,-25.25253 c 0.726,-35.53047 -1.5997,-104.56021 -3.7099,-110.11027 -0.587,-1.54393 -1.9899,-1.91018 -13.4572,-3.51322 C 1072.2936,322.73328 956.70854,285.75538 843.23237,225.2345 812.91571,209.06555 784.3092,191.78215 752.48004,170.40402 c -9.84303,-6.6111 -20.4334,-13.60906 -23.53415,-15.55103 l -5.63774,-3.53086 -2.39995,1.51065 c -1.31997,0.83086 -15.24612,10.10932 -30.94698,20.61879 -40.57554,27.15948 -65.65746,41.83343 -108.15672,63.27608 -67.77331,34.19447 -129.99504,58.10901 -202.81503,77.9507 -19.56309,5.33048 -50.02026,12.5264 -63.78776,15.07074 -21.41078,3.95688 -58.02347,9.98864 -71.16129,11.72347 -7.33334,0.96836 -14.11574,2.05603 -15.072,2.41706 -2.30455,0.87004 -2.5066,2.35624 -3.94805,29.03969 -3.99754,74.00069 -1.04328,156.17384 8.97703,249.69699 8.7063,81.25906 17.11112,129.7046 34.41763,198.38385 22.09051,87.66408 52.36685,163.9693 92.18107,232.32325 38.75225,66.5307 96.8111,132.9749 164.34527,188.0812 38.11013,31.0971 73.45219,55.238 124.75564,85.2163 16.56155,9.6775 71.16284,39.9054 73.27872,40.568 1.35317,0.4236 7.08864,-2.3987 24.64647,-12.1284 82.78563,-45.8757 121.98575,-71.1239 170.1326,-109.5801 38.33287,-30.6174 78.02651,-69.5715 107.887,-105.8767 45.2816,-55.0549 76.9421,-108.2549 107.2885,-180.28048 5.6967,-13.52064 4.1944,-12.10189 18.1809,-17.17002 19.1477,-6.93834 46.6569,-23.30965 65.4545,-38.95329 5.3334,-4.43855 9.8257,-7.95378 9.9831,-7.8118 0.8963,0.80913 -19.3911,58.39774 -28.6295,81.26893 -22.2447,55.07036 -54.8257,114.53796 -88.712,161.91886 -39.363,55.0387 -90.3787,108.8303 -146.37896,154.3439 -56.3925,45.8324 -130.02603,91.9944 -210.10103,131.7156 -14.66666,7.2754 -27.39394,13.4224 -28.28283,13.66 -1.07805,0.2881 -11.03302,-4.3532 -29.89899,-13.9398 z"
       id="path4" />
    <path
       style="display:inline;fill:#4f46e5;fill-opacity:1;stroke:#4f46e5;stroke-width:0.808081;stroke-opacity:1"
       d="m 597.57579,926.8524 c -49.44671,-5.5223 -85.86284,-18.35703 -126.06061,-44.42961 -20.9544,-13.59119 -46.27023,-36.80105 -63.2211,-57.9619 -23.26351,-29.0413 -43.13533,-65.60809 -53.0354,-97.59216 -5.453,-17.61695 -52.76617,-208.21641 -51.90105,-209.08154 0.22299,-0.22299 74.29619,-0.35353 164.60712,-0.2901 l 164.20168,0.11534 13.55867,1.97038 c 46.35799,6.73685 84.91637,19.62581 118.93661,39.75711 15.56457,9.21025 21.40343,13.32526 52.82036,37.22577 2.48292,1.88889 5.1475,3.43434 5.9213,3.43434 0.77379,0 2.71778,-1 4.31998,-2.22222 1.60219,-1.22222 7.92899,-6.07104 14.05953,-10.77515 32.95394,-25.28629 61.89803,-40.78875 98.5001,-52.75665 26.7215,-8.73722 55.56407,-14.51777 79.11102,-15.85522 15.5092,-0.88091 312.7222,-1.49347 313.5694,-0.64627 0.9063,0.90631 -13.9307,69.12859 -30.7181,141.24542 -3.2589,14 -7.2644,31.81818 -8.9011,39.59596 -8.0667,38.33429 -15.1844,60.24942 -27.6784,85.22121 -14.9762,29.93296 -33.1488,54.33244 -58.4377,78.4615 -8.2801,7.90025 -12.4665,11.30033 -22.9856,18.66797 -18.5257,12.9755 -31.9542,20.05909 -56.1616,29.62547 -47.2472,18.6713 -114.8272,22.72662 -165.34203,9.92178 -17.7395,-4.49673 -37.80469,-12.65466 -50.7988,-20.65336 -9.96664,-6.13508 -16.8883,-11.72921 -31.62726,-25.5613 -16.3085,-15.30507 -21.56441,-19.42893 -29.74314,-23.33695 -9.36522,-4.47494 -14.81123,-5.60185 -27.13528,-5.6149 -12.36146,-0.0131 -17.793,1.09667 -27.26799,5.57137 -8.74181,4.12845 -11.95518,6.61831 -27.90019,21.61822 -8.02087,7.54546 -16.43476,15.19324 -18.69751,16.99508 -13.20694,10.51664 -35.53146,22.40112 -52.49255,27.94444 -11.83079,3.8666 -25.76941,6.90676 -39.41226,8.59622 -14.71152,1.82181 -47.11601,2.25849 -60.0881,0.80975 z m 53.0457,-160.40281 c 22.56983,-2.22012 49.68635,-9.93974 72.40885,-20.61357 6.83544,-3.21094 7.47368,-3.7057 7.46224,-5.78472 -0.0156,-2.83703 -4.6837,-13.37849 -10.84013,-24.47915 -20.95799,-37.78931 -58.83036,-65.0853 -101.12257,-72.8827 -14.06063,-2.59236 -44.84712,-2.57982 -61.67585,0.0251 -20.4762,3.16953 -47.38748,10.99198 -61.74968,17.94913 -8.07831,3.91319 -8.09464,3.94393 -5.69786,10.73205 3.45486,9.78476 8.70349,19.82814 16.53212,31.6346 6.13999,9.25981 9.56349,13.3717 18.86228,22.65512 22.19555,22.15889 46.00473,34.39982 77.62339,39.90823 10.27101,1.78935 34.35905,2.21712 48.19721,0.8559 z m 385.97611,-0.0316 c 45.089,-4.9115 79.511,-26.23326 104.2901,-64.59979 8.0074,-12.39825 17.9871,-34.48205 16.8829,-37.35965 -1.1136,-2.90204 -33.97,-14.82716 -51.5079,-18.69463 -17.5166,-3.86278 -27.2138,-4.83413 -48.8889,-4.89712 -18.1211,-0.0527 -21.2009,0.13828 -29.899,1.85367 -39.00769,7.69283 -73.40263,29.83346 -93.789,60.37365 -7.9744,11.9462 -19.4145,35.33068 -18.47814,37.77079 0.67287,1.75345 5.60766,4.17745 19.81397,9.73271 22.41732,8.76612 36.90612,12.69008 56.89762,15.40941 9.89925,1.34654 34.05005,1.56868 44.67835,0.41096 z"
       id="path8" />
    <path
       style="opacity:1;baseline-shift:baseline;display:inline;overflow:visible;vector-effect:none;fill:#4f46e5;enable-background:accumulate;stop-color:#000000;stop-opacity:1"
       d="m 713.53539,1200.4041 v -20.202 h 91.58941 91.58942 l 0.52951,15.1515 c 0.29125,8.3333 0.53056,17.4242 0.53181,20.202 l 0.002,5.0505 H 805.65632 713.5351 Z"
       id="path11" />
    <path
       style="display:inline;fill:#4f46e5;fill-opacity:1;stroke:#4f46e5;stroke-width:0.808081;stroke-opacity:1"
       d="m 576.26586,1219.1943 c -3.03833,-0.5429 -20.71701,-18.5476 -21.92381,-22.3282 -2.0802,-6.5166 -2.85118,-5.5903 44.45704,-53.4132 26.4127,-26.7 43.80086,-44.8815 44.11315,-46.1258 0.60739,-2.42 3.49104,0.7042 -45.82589,-49.6493 -43.91101,-44.834 -42.74288,-43.523 -42.74288,-47.9691 0,-4.56601 2.13279,-7.47427 13.26829,-18.09248 9.401,-8.9643 10.83276,-9.595 15.4246,-6.79472 2.71683,1.65683 110.75348,110.5346 113.80921,114.6952 2.73493,3.7239 3.34121,8.4084 1.57175,12.1442 -1.33711,2.8231 -109.5027,112.4159 -114.17486,115.6814 -2.36545,1.6533 -5.28936,2.3322 -7.9766,1.852 z"
       id="path9" />
    <path
       style="fill:#ffffff;fill-opacity:1;stroke:#4f46e5;stroke-width:0.808081;stroke-opacity:1"
       d="m 608.90239,765.60272 c -8.87622,-0.91762 -24.30713,-4.60723 -33.54882,-8.02169 -26.78235,-9.89509 -52.51994,-30.73918 -69.35299,-56.16685 -6.02621,-9.10308 -13.56137,-23.5601 -15.86911,-30.44658 -1.92211,-5.73573 -1.50915,-6.35226 6.79326,-10.14209 13.44281,-6.13629 36.99219,-13.14718 54.99449,-16.37242 20.55048,-3.68177 53.6234,-3.66897 70.684,0.0274 37.47093,8.11838 72.07482,32.48377 92.33409,65.01454 5.2717,8.46488 13.68359,25.51265 14.42667,29.23749 0.5018,2.51529 0.38953,2.63293 -5.19855,5.44704 -17.04613,8.5843 -40.96949,16.18558 -62.75125,19.93825 -11.17933,1.92604 -40.28382,2.74906 -52.51179,1.48495 z"
       id="path18" />
    <path
       style="fill:#ffffff;fill-opacity:1;stroke:#4f46e5;stroke-width:0.808081;stroke-opacity:1"
       d="m 995.842,765.63735 c -16.65236,-1.60874 -36.97809,-6.85555 -58.46821,-15.09277 -15.66746,-6.00538 -21.0101,-8.73112 -21.0101,-10.71905 0,-3.96458 11.49881,-26.41072 19.58555,-38.23176 16.09533,-23.52786 43.28734,-43.28415 72.98396,-53.02632 17.1032,-5.61082 24.0418,-6.5495 48.2796,-6.53144 22.8756,0.017 31.6478,0.82896 47.8617,4.42987 11.8832,2.63912 36.2998,10.67282 45.4035,14.93896 6.5067,3.04917 6.7256,3.24065 6.1994,5.42344 -1.6851,6.99052 -11.2576,26.52672 -17.7386,36.20206 -23.0123,34.35443 -52.8788,54.09462 -92.4741,61.12051 -10.6402,1.88802 -38.1153,2.69481 -50.6227,1.4865 z"
       id="path19" />
    <path
       style="display:none;fill:#000000;fill-opacity:0;stroke:#4f46e5;stroke-opacity:1"
       d="m 1223.3923,480.40407 0.032,36.95131"
       id="path20" />
    <path
       style="display:none;fill:#ffffff;fill-opacity:0;stroke:#4f46e5;stroke-opacity:1"
       d="m 1132.9303,959.33322 20.8435,-59.9917"
       id="path21" />
    <path
       style="fill:#ffffff;fill-opacity:1;stroke:#4f46e5;stroke-width:0.571399;stroke-opacity:0"
       d="m 719.67761,1364.6881 c -19.1854,-9.842 -73.39407,-40.6537 -97.13791,-55.2122 -84.23957,-51.6515 -153.5761,-111.8572 -210.05202,-182.3905 -21.02377,-26.2568 -39.38193,-53.1887 -54.91875,-80.5673 C 313.60608,969.04781 282.52697,884.55583 259.2043,779.10315 248.3878,730.19673 242.01029,689.74316 235.15262,626.5395 224.48791,528.24821 221.62233,447.31484 226.00806,368.26695 c 0.93848,-16.91499 1.53615,-22.09227 2.68023,-23.21716 0.40199,-0.39525 7.0039,-1.63851 14.72788,-2.77354 50.08295,-7.3596 81.83845,-13.34125 115.70838,-21.79549 82.74781,-20.6546 157.8435,-49.19684 235.35568,-89.45356 37.93816,-19.70356 55.50003,-30.21577 102.15532,-61.14831 l 26.6697,-17.68205 5.33907,3.39771 c 2.93649,1.86874 13.94823,9.1112 24.47056,16.09434 41.98363,27.8625 71.85491,45.34887 112.26959,65.7217 105.25818,53.06007 207.65503,84.87191 333.77343,103.69407 18.0702,2.69684 19.8391,3.09082 20.3963,4.54287 0.5565,1.45019 1.4364,11.76802 2.0751,24.33361 1.391,27.36176 1.7778,55.32087 1.3895,100.42346 l -0.3998,46.4262 -67.48,0.0424 c -88.3407,0.0555 -139.3438,0.71497 -148.9046,1.92536 -38.58869,4.88533 -77.29757,16.37374 -109.50227,32.49919 -20.77586,10.40285 -36.06542,20.27431 -60.73159,39.21049 -5.76777,4.42789 -11.09589,8.20357 -11.84026,8.39039 -1.70819,0.42873 -1.25508,0.73062 -20.20125,-13.45991 -17.33811,-12.98612 -25.83683,-18.86703 -36.56957,-25.3053 -35.3787,-21.22267 -71.87978,-33.56689 -122.08322,-41.28705 l -13.23162,-2.03472 -164.28319,0.15243 c -90.35575,0.0838 -164.48312,0.3524 -164.7275,0.5968 -0.24439,0.24441 -0.11571,2.04432 0.28595,3.9998 2.67428,13.02002 33.63771,138.44684 44.60576,180.68926 8.03332,30.93956 12.04312,42.37532 22.03893,62.85393 20.30726,41.60388 47.70567,76.19424 82.5538,104.22384 15.42441,12.40639 31.00385,22.19601 50.56885,31.77569 27.27596,13.35526 49.68302,20.05246 84.28142,25.19072 19.03624,2.82705 57.26593,2.52393 77.25796,-0.6126 22.81785,-3.57993 38.84036,-8.70527 57.87801,-18.5142 18.10762,-9.32981 23.98985,-13.6269 44.41207,-32.44423 17.76795,-16.37162 21.09595,-19.01229 28.47764,-22.59576 10.44061,-5.06843 18.01497,-6.51682 31.39069,-6.0025 9.81281,0.3773 14.86535,1.53792 22.55702,5.18151 9.11125,4.31601 13.14104,7.44071 31.258,24.23739 13.1695,12.20972 18.30284,16.46368 26.367,21.8502 20.31074,13.56663 49.83112,24.19157 78.38132,28.21085 43.20705,6.08261 92.30435,2.33063 130.32695,-9.95949 8.3189,-2.68889 21.5607,-7.87331 30.0567,-11.76774 3.1276,-1.43365 5.8218,-2.47142 5.9871,-2.30617 0.5791,0.57911 -20.3598,59.62107 -24.5544,69.2363 -32.232,73.88642 -68.7221,131.36792 -120.0643,189.13322 -11.03734,12.4182 -42.26266,43.777 -54.89321,55.1279 -42.08792,37.8239 -82.79716,67.7202 -135.19563,99.2856 -33.22316,20.0141 -90.79552,52.2098 -93.20053,52.1199 -0.40426,-0.015 -2.2778,-0.8189 -4.16342,-1.7862 z m 178.36045,-153.1784 c -0.19502,-5.1069 -0.52066,-14.3636 -0.72356,-20.5704 l -0.36901,-11.2851 H 805.026 713.10651 v 20.5703 20.5704 h 92.64311 92.64311 z m -314.6754,7.1689 c 3.01305,-1.3701 106.08346,-105.0944 114.20352,-114.928 1.71355,-2.0751 2.08599,-3.0205 2.2875,-5.8063 0.4712,-6.5144 1.44408,-5.3626 -40.30052,-47.7121 -48.68436,-49.3899 -74.83504,-75.326 -77.12589,-76.49303 -4.41792,-2.25068 -7.16582,-0.69127 -18.40145,10.44262 -8.49149,8.41454 -10.33975,11.19994 -10.33975,15.58223 0,4.59758 -0.21203,4.36038 47.14292,52.75378 34.60564,35.3645 41.42399,42.5942 41.42399,43.9227 0,1.2355 -6.59944,8.2046 -42.2765,44.6442 -36.76614,37.552 -42.02384,43.1078 -45.00621,47.5582 -1.78495,2.6636 -1.97331,3.2989 -1.72973,5.8338 0.21277,2.2144 0.8191,3.5777 2.73665,6.1533 3.35417,4.5052 16.38236,17.3698 18.85066,18.6139 2.26089,1.1396 5.21607,0.9439 8.53481,-0.5653 z"
       id="path22" />
  </g>
</svg>
